PathFileType	4	(X/Y/Z)	C:/Users/beibeiliu/ov580/test_trc/User3\sequence.12_training_dense_left.trc
DataRate	CameraRate	NumFrames	NumMarkers	Units	OrigDataRate	OrigDataStartFrame	OrigNumFrames
120	120	17	19	mm	120	1	101
Frame#	Time	ThumbCMC			ThumbMCP			ThumbIP			ThumbTip			IndexMCP			IndexPIP			IndexTip			MiddleMCP			MiddlePIP			MiddleTip			RingMCP			RingPIP			RingTip			PinkyMCP			PinkyPIP			PinkyTip			BackHand1			BackHand2			BackHand3	
		X0	Y0	Z0	X1	Y1	Z1	X2	Y2	Z2	X3	Y3	Z3	X4	Y4	Z4	X5	Y5	Z5	X6	Y6	Z6	X7	Y7	Z7	X8	Y8	Z8	X9	Y9	Z9	X10	Y10	Z10	X11	Y11	Z11	X12	Y12	Z12	X13	Y13	Z13	X14	Y14	Z14	X15	Y15	Z15	X16	Y16	Z16	X17	Y17	Z17	X18	Y18	Z18	
0	0	-184.95	-34.2177	24.7568	-184.883	-39.3898	-11.2442	-188.964	-40.7072	-42.9871	-202.604	-50.2133	-66.5123	-246.972	-11.5714	-16.3366	-250.217	-7.092	-42.8148	-255.065	-6.54309	-72.9031	-254.648	-29.3574	-23.8575	-245.545	-39.5294	-54.4015	-218.46	-63.9924	-63.0508	-268.033	-41.2459	-13.6548	-276.025	-40.3603	-36.1233	-277.357	-45.5717	-64.2713	-272.675	-66.308	5.66447	-286.743	-63.5519	-9.66763	-297.039	-59.0421	-34.0271	-250.038	-51.7313	38.4057	-230.86	-64.6027	64.738	-222.829	-31.2542	47.0077	
1	0.00833333	-171.197	-40.1999	25.7074	-167.908	-44.5961	-9.5377	-175.717	-48.8845	-37.3052	-187.104	-56.0658	-62.2613	-221.831	-5.08431	-20.7562	-224.882	-1.54117	-49.6097	-227.689	-1.92888	-76.5693	-232.111	-20.6253	-29.5592	-225.101	-33.3286	-54.9372	-204.334	-67.4875	-58.476	-252.697	-30.5776	-14.5782	-254.923	-26.0776	-40.1806	-257.292	-32.5887	-72.6597	-256.977	-50.5201	5.8993	-276.562	-42.2061	-15.7415	-284.768	-39.9757	-35.5848	-236.569	-43.0657	38.9313	-224.33	-52.3048	63.1429	-205.565	-25.5023	43.8042	
2	0.0166667	-163.275	-45.3116	28.7115	-160.084	-51.2679	-4.48416	-166.68	-54.6378	-39.7873	-177.316	-61.6158	-56.0373	-204.52	-2.14838	-26.8143	-209.468	-2.00717	-49.2539	-208.401	0.233354	-75.0396	-222.786	-19.5057	-27.8469	-214.363	-35.2311	-55.9729	-195.981	-68.0339	-57.0445	-237.624	-24.0278	-14.7752	-244.32	-22.8462	-46.5154	-247.035	-30.4638	-73.1904	-251.986	-43.101	5.50508	-267.556	-35.2132	-15.0651	-273.47	-32.3772	-37.7091	-230.488	-37.1715	37.9135	-218.434	-47.9765	61.7164	-196.799	-26.461	45.4271	
3	0.025	-162.096	-44.154	25.0097	-161.913	-53.5824	-5.38062	-166.003	-58.6187	-35.9025	-174.141	-65.8594	-54.9041	-204.728	-5.09236	-26.0107	-204.773	-0.978776	-53.7997	-210.349	-4.83549	-73.9004	-218.912	-20.0351	-27.2183	-212.419	-39.4639	-56.9875	-197.321	-72.3711	-55.6691	-236.502	-23.7276	-17.8016	-243.412	-24.2644	-45.7747	-243.691	-29.7484	-69.1447	-246.381	-42.4551	4.62664	-262.958	-31.6665	-14.6501	-273.75	-30.2363	-37.2505	-229.119	-35.367	34.3728	-222.558	-47.9444	61.6941	-196.105	-24.2066	42.9138	
4	0.0333333	-163.994	-47.738	30.2798	-160.83	-54.6017	-6.46337	-161.943	-60.8559	-35.3527	-172.463	-67.7693	-57.1231	-199.515	-4.36695	-23.3394	-202.827	-2.13938	-48.8037	-203.946	-2.5742	-74.7495	-215.032	-19.8844	-33.5477	-206.708	-41.5541	-57.733	-193.947	-71.7123	-57.3253	-238.43	-26.9779	-17.598	-240.496	-23.4626	-47.8102	-242.672	-32.5421	-73.8493	-251.12	-42.7509	3.68953	-259.665	-31.5319	-14.4261	-271.885	-29.5314	-38.3135	-229.332	-34.2939	35.4433	-218.16	-43.4512	60.0855	-195.694	-25.3247	42.4558	
5	0.0416667	-162.172	-46.3257	26.9374	-157.988	-54.9315	-4.78978	-162.54	-60.1561	-36.4096	-169.421	-68.1792	-57.8122	-193.622	-4.34891	-23.0759	-200.557	-3.92567	-52.9452	-198.858	-2.93488	-75.0754	-213.303	-22.1492	-33.0127	-203.492	-39.3319	-57.7334	-192.684	-73.9064	-57.1208	-234.783	-25.7456	-18.705	-238.31	-23.8603	-48.4117	-239.362	-30.8807	-71.9402	-245.509	-39.8935	3.00744	-255.554	-30.6319	-14.1052	-266.7	-29.412	-39.3831	-222.139	-33.3856	36.8408	-217.078	-44.8763	60.887	-189.247	-23.9912	42.8164	
6	0.05	-156.761	-45.2753	26.8597	-152.715	-54.6991	-6.44043	-157.358	-62.0508	-32.1729	-166.162	-67.3099	-54.9855	-193.699	-4.77921	-28.0471	-191.188	-2.10987	-50.3075	-195.214	-3.20267	-75.73	-209.307	-21.9625	-34.6065	-199.063	-36.807	-57.5331	-186.081	-74.6523	-59.8219	-225.847	-23.1767	-18.2894	-232.065	-22.1267	-47.071	-231.101	-27.6973	-77.5384	-243.969	-39.2516	1.43231	-254.959	-27.8721	-20.5403	-262.236	-25.9709	-42.6352	-217.443	-33.484	34.7343	-215.623	-44.7699	61.4543	-189.314	-23.7063	44.5027	
7	0.0583333	-153.915	-45.9954	30.9675	-149.792	-55.3527	-3.65024	-152.902	-59.7629	-37.315	-160.447	-67.2299	-57.7832	-189.219	-3.34999	-28.2559	-187.193	-1.45089	-56.4527	-191.329	-2.66287	-77.2305	-204.315	-20.5785	-35.9565	-196.216	-37.0782	-59.1581	-178.999	-74.7469	-61.4375	-223.294	-21.5616	-21.2493	-230.884	-22.5665	-49.561	-229.244	-28.6775	-75.8181	-242.269	-35.8778	-1.15572	-250.498	-27.3773	-19.2782	-258.089	-24.4256	-47.7993	-220.999	-34.4191	33.5854	-215.122	-42.9097	58.0581	-185.791	-20.6033	42.6295	
8	0.0666667	-154.1	-46.11	28.4547	-149.967	-54.9701	-5.12872	-153.1	-60.4594	-33.239	-162.323	-66.8212	-58.158	-186.37	-4.52999	-26.9305	-185.624	-2.42173	-58.2272	-182.539	-3.75351	-84.0184	-202.358	-19.458	-33.8987	-195.38	-40.2795	-62.5102	-179.545	-72.3354	-63.8965	-223.665	-22.3358	-23.9034	-228.262	-22.6092	-50.9197	-222.285	-30.3362	-80.068	-238.814	-40.917	-0.549503	-248.267	-29.0662	-20.1625	-256.415	-26.4066	-47.7707	-217.84	-33.8567	30.0077	-214.326	-45.4487	58.9173	-185.94	-24.1411	41.5236	
9	0.075	-154.566	-47.3672	31.4643	-143.557	-55.1007	-4.52752	-144.21	-60.6315	-32.4671	-158.174	-68.7528	-52.5276	-183.769	-6.34819	-28.8339	-185.135	-5.49915	-54.3237	-182.475	-8.36411	-82.1462	-199.518	-19.6502	-36.7037	-190.478	-36.2651	-63.3234	-177.084	-70.4637	-64.6262	-219.543	-22.1673	-25.1636	-227.463	-24.5256	-50.7705	-219.675	-36.241	-78.898	-232.748	-42.6201	-2.31934	-247.973	-32.3659	-24.6015	-252.074	-30.4533	-48.9385	-219.637	-36.7378	29.9286	-215.065	-44.281	54.8892	-184.775	-24.8179	41.8821	
10	0.0833333	-151.849	-45.1551	30.8054	-141.715	-52.9017	-0.93032	-142.292	-58.8186	-31.3949	-154.933	-67.5494	-54.1444	-185.272	-9.5984	-29.9114	-181.287	-7.08591	-56.3209	-179.987	-14.1444	-84.9074	-200.641	-20.8785	-38.2588	-191.351	-35.7112	-62.8736	-179.469	-71.3362	-63.22	-224.101	-28.7037	-23.5463	-225.953	-27.3496	-51.8209	-215.444	-42.2898	-79.7376	-231.98	-45.7991	-3.19662	-246.871	-35.7235	-24.7536	-250.531	-36.0269	-49.7419	-218.768	-39.3052	29.6001	-213.896	-46.5497	53.0646	-187.223	-25.9639	40.9977	
11	0.0916667	-153.482	-47.9042	35.3251	-135.871	-50.597	2.66668	-135.87	-55.2545	-28.0079	-152.609	-65.3083	-47.0621	-183.832	-9.62844	-29.3007	-181.007	-8.07431	-58.1248	-178.907	-14.8296	-80.8947	-201.248	-21.3756	-34.3293	-193.282	-37.7865	-63.8463	-176.01	-73.7721	-58.861	-222.064	-30.5199	-21.0488	-222.562	-27.6816	-50.9904	-216.181	-45.3582	-75.9692	-232.788	-43.9223	-5.85111	-244.161	-38.9496	-23.2939	-251.6	-41.0813	-52.2091	-219.305	-39.1691	28.5754	-216.002	-49.1518	55.6217	-184.227	-27.1787	39.0181	
12	0.1	-154.179	-44.7648	33.5486	-139.626	-49.3757	5.54084	-132.951	-53.0398	-25.7122	-148.762	-63.0053	-47.5534	-183.242	-9.17681	-29.278	-179.441	-6.78192	-56.5462	-177.289	-14.3333	-79.5065	-198.963	-20.8841	-35.5609	-191.141	-39.4254	-63.0549	-176.894	-71.5832	-56.5826	-223.307	-30.7358	-21.6875	-220.402	-28.524	-53.7007	-212.672	-47.5243	-75.8375	-233.486	-50.2394	-3.11929	-245.009	-41.8455	-22.8857	-249.513	-41.4248	-53.1535	-214.496	-39.2184	26.5366	-212.624	-49.9495	57.5673	-185.414	-29.7167	41.6949	
13	0.108333	-150.866	-45.7269	37.3979	-134.529	-46.1315	4.71812	-132.784	-49.9642	-26.1706	-149.757	-62.7568	-46.1128	-186.511	-11.8549	-25.3623	-183.18	-7.05135	-53.614	-177.767	-16.5538	-82.9945	-201.026	-21.2707	-37.0632	-189.455	-39.2304	-62.2413	-174.149	-70.5734	-52.8162	-221.286	-28.6589	-22.9226	-222.998	-28.8454	-49.7984	-212.504	-46.2289	-74.078	-232.723	-45.8215	-5.30951	-246.357	-42.0853	-28.0615	-248.107	-42.459	-52.4956	-215.062	-40.1722	26.7441	-213.532	-47.7574	56.1102	-185.926	-28.1692	44.6508	
14	0.116667	-150.645	-43.3441	36.9538	-135.339	-46.6497	7.80947	-132.556	-51.2287	-24.1597	-150.743	-62.7382	-43.453	-188.692	-10.7748	-27.8676	-186.164	-8.3345	-55.1762	-179.417	-17.6839	-81.8631	-201.413	-21.3303	-33.4277	-191.028	-37.8471	-61.2662	-175.855	-74.1239	-46.6324	-222.182	-28.5946	-21.3375	-224.73	-29.0116	-51.4186	-213.538	-45.541	-72.4293	-237.772	-48.5138	-4.27877	-248.5	-43.4642	-22.7518	-252.755	-44.7497	-53.8845	-219.514	-41.8329	30.3923	-212.742	-49.0741	54.9311	-188.301	-28.0829	41.9561	
15	0.125	-151.901	-45.096	36.5764	-138.859	-48.1393	5.25928	-137.04	-52.0205	-27.9953	-151.349	-65.7562	-43.6516	-187.116	-10.8467	-26.0378	-183.68	-7.51702	-55.5451	-182.03	-19.9609	-84.2998	-205.317	-23.1398	-32.2611	-190.378	-41.0069	-61.5431	-176.744	-72.2826	-47.2473	-224.229	-30.4285	-19.0942	-224.958	-29.0194	-49.2344	-215.476	-49.3157	-71.8595	-238.547	-50.3707	-2.63406	-248.015	-42.8612	-23.3344	-251.679	-43.869	-51.3554	-218.132	-40.9807	27.6427	-214.149	-49.2448	56.4069	-188.24	-25.4829	40.4465	
16	0.133333	-151.983	-45.0785	38.6974	-138.818	-46.8931	3.17845	-138.388	-52.5085	-24.2971	-158.087	-64.9946	-43.8059	-188.605	-12.5495	-23.568	-187.996	-11.2239	-57.1298	-183.009	-19.4189	-81.4024	-207.075	-25.4797	-30.6402	-196.331	-42.0678	-60.3491	-179.859	-72.8751	-45.5065	-222.081	-29.9413	-20.3715	-227.519	-31.9109	-51.2186	-214.288	-53.4093	-73.8722	-238.066	-50.2724	-3.25287	-249.226	-44.3778	-21.8689	-252.514	-46.2405	-48.2148	-218.71	-43.1261	32.2916	-215.001	-47.6084	55.8636	-190.615	-27.1542	40.2869	
